<svg xmlns="http://www.w3.org/2000/svg" width="24" height="24" viewBox="0 0 24 24" fill="none">
  <path d="M5.28921 14.7901C5.38217 14.8839 5.49277 14.9583 5.61463 15.009C5.73649 15.0598 5.8672 15.0859 5.99921 15.0859C6.13122 15.0859 6.26192 15.0598 6.38378 15.009C6.50564 14.9583 6.61624 14.8839 6.70921 14.7901L11.2892 10.2101C11.3822 10.1164 11.4928 10.042 11.6146 9.99125C11.7365 9.94048 11.8672 9.91434 11.9992 9.91434C12.1312 9.91434 12.2619 9.94048 12.3838 9.99125C12.5056 10.042 12.6162 10.1164 12.7092 10.2101L17.2892 14.7901C17.3822 14.8839 17.4928 14.9583 17.6146 15.009C17.7365 15.0598 17.8672 15.0859 17.9992 15.0859C18.1312 15.0859 18.2619 15.0598 18.3838 15.009C18.5056 14.9583 18.6162 14.8839 18.7092 14.7901C18.8955 14.6028 19 14.3493 19 14.0851C19 13.821 18.8955 13.5675 18.7092 13.3801L14.1192 8.79014C13.5567 8.22834 12.7942 7.91278 11.9992 7.91278C11.2042 7.91278 10.4417 8.22834 9.87921 8.79014L5.28921 13.3801C5.10296 13.5675 4.99841 13.821 4.99841 14.0851C4.99841 14.3493 5.10296 14.6028 5.28921 14.7901Z" fill="black"/>
</svg>