<svg xmlns="http://www.w3.org/2000/svg" width="24" height="24" viewBox="0 0 24 24" fill="none">
  <path d="M18.7108 9.20986C18.6178 9.11613 18.5072 9.04174 18.3854 8.99097C18.2635 8.9402 18.1328 8.91406 18.0008 8.91406C17.8688 8.91406 17.7381 8.9402 17.6162 8.99097C17.4944 9.04174 17.3838 9.11613 17.2908 9.20986L12.7108 13.7899C12.6178 13.8836 12.5072 13.958 12.3854 14.0088C12.2635 14.0595 12.1328 14.0857 12.0008 14.0857C11.8688 14.0857 11.7381 14.0595 11.6162 14.0088C11.4944 13.958 11.3838 13.8836 11.2908 13.7899L6.71079 9.20986C6.61783 9.11613 6.50723 9.04174 6.38537 8.99097C6.26351 8.9402 6.1328 8.91406 6.00079 8.91406C5.86878 8.91406 5.73807 8.9402 5.61622 8.99097C5.49436 9.04174 5.38376 9.11613 5.29079 9.20986C5.10454 9.39722 5 9.65067 5 9.91486C5 10.179 5.10454 10.4325 5.29079 10.6199L9.88079 15.2099C10.4433 15.7717 11.2058 16.0872 12.0008 16.0872C12.7958 16.0872 13.5583 15.7717 14.1208 15.2099L18.7108 10.6199C18.897 10.4325 19.0016 10.179 19.0016 9.91486C19.0016 9.65067 18.897 9.39722 18.7108 9.20986Z" fill="black"/>
</svg>