<svg xmlns="http://www.w3.org/2000/svg" width="24" height="25" viewBox="0 0 24 25" fill="none">
  <g clipPath="url(#clip0_1665_9405)">
    <path d="M23.0625 11.5625H12.9375V1.4375C12.9375 0.919719 12.5178 0.5 12 0.5C11.4822 0.5 11.0625 0.919719 11.0625 1.4375V11.5625H0.9375C0.419719 11.5625 0 11.9822 0 12.5C0 13.0178 0.419719 13.4375 0.9375 13.4375H11.0625V23.5625C11.0625 24.0803 11.4822 24.5 12 24.5C12.5178 24.5 12.9375 24.0803 12.9375 23.5625V13.4375H23.0625C23.5803 13.4375 24 13.0178 24 12.5C24 11.9822 23.5803 11.5625 23.0625 11.5625Z" fill="#3A4B68"/>
  </g>
  <defs>
    <clipPath id="clip0_1665_9405">
      <rect width="24" height="24" fill="white" transform="translate(0 0.5)"/>
    </clipPath>
  </defs>
</svg>