<svg
    xmlns="http://www.w3.org/2000/svg"
    width="60"
    height="60"
    viewBox="0 0 60 60"
    fill="none"
    >
    <mask
    id="mask0_1665_7343"
    style="mask-type:alpha"
    maskUnits="userSpaceOnUse"
    x="0"
    y="0"
    width="60"
    height="60"
    >
    <rect width="60" height="60" fill="#D9D9D9" />
    </mask>
    <g mask="url(#mask0_1665_7343)">
    <path
        d="M9.6875 41.75C8.64583 41.625 7.76 41.1558 7.03 40.3425C6.30167 39.5308 5.9375 38.5833 5.9375 37.5V17.875C5.9375 17.3333 6.08333 16.8225 6.375 16.3425C6.66667 15.8642 7.08333 15.4792 7.625 15.1875L26.5625 5.75L45.125 15.1875C45.5833 15.3958 45.9483 15.7292 46.22 16.1875C46.49 16.6458 46.6875 17.125 46.8125 17.625H41.75L26.5625 9.9375L9.6875 18.3125V41.75ZM18.5625 51.25C17.3125 51.25 16.25 50.8125 15.375 49.9375C14.5 49.0625 14.0625 48 14.0625 46.75V25.75C14.0625 24.5 14.5 23.4375 15.375 22.5625C16.25 21.6875 17.3125 21.25 18.5625 21.25H49.5625C50.8125 21.25 51.875 21.6875 52.75 22.5625C53.625 23.4375 54.0625 24.5 54.0625 25.75V46.75C54.0625 48 53.625 49.0625 52.75 49.9375C51.875 50.8125 50.8125 51.25 49.5625 51.25H18.5625ZM34.0625 37.25L17.8125 28.875V46.75C17.8125 46.9583 17.8858 47.1358 18.0325 47.2825C18.1775 47.4275 18.3542 47.5 18.5625 47.5H49.5625C49.7708 47.5 49.9483 47.4275 50.095 47.2825C50.24 47.1358 50.3125 46.9583 50.3125 46.75V28.875L34.0625 37.25ZM34.0625 33.375L50 25.125C49.9167 25.0833 49.8442 25.0517 49.7825 25.03C49.7192 25.01 49.6458 25 49.5625 25H18.5625C18.4792 25 18.4067 25.01 18.345 25.03C18.2817 25.0517 18.2083 25.0833 18.125 25.125L34.0625 33.375ZM50.3125 28.875C50.3125 28.125 50.2808 27.4792 50.2175 26.9375C50.1558 26.3958 50.0833 25.7917 50 25.125C49.9167 25.0833 49.8442 25.0517 49.7825 25.03C49.7192 25.01 49.6458 25 49.5625 25H18.5625C18.4792 25 18.4067 25.01 18.345 25.03C18.2817 25.0517 18.2083 25.0833 18.125 25.125C18.0417 25.7917 17.9683 26.3958 17.905 26.9375C17.8433 27.4792 17.8125 28.125 17.8125 28.875V25H50.3125V28.875Z"
        fill="white"
    />
    </g>
</svg>