<svg xmlns="http://www.w3.org/2000/svg" width="60" height="60" viewBox="0 0 60 60" fill="none">
  <mask id="mask0_1665_7355" style="mask-type:alpha" maskUnits="userSpaceOnUse" x="0" y="0" width="60" height="60">
    <rect width="60" height="60" fill="#D9D9D9"/>
  </mask>
  <g mask="url(#mask0_1665_7355)">
    <path d="M30 42C34.3333 38.5417 37.6042 35.2183 39.8125 32.03C42.0208 28.8433 43.125 25.7917 43.125 22.875C43.125 20.4167 42.6767 18.3225 41.78 16.5925C40.885 14.8642 39.7817 13.4683 38.47 12.405C37.1567 11.3433 35.7292 10.5725 34.1875 10.0925C32.6458 9.61417 31.25 9.375 30 9.375C28.75 9.375 27.3542 9.61417 25.8125 10.0925C24.2708 10.5725 22.8442 11.3433 21.5325 12.405C20.2192 13.4683 19.1142 14.8642 18.2175 16.5925C17.3225 18.3225 16.875 20.4167 16.875 22.875C16.875 25.7917 17.9792 28.8433 20.1875 32.03C22.3958 35.2183 25.6667 38.5417 30 42ZM30 46.75C24.3333 42.5 20.1042 38.4058 17.3125 34.4675C14.5208 30.5308 13.125 26.6667 13.125 22.875C13.125 20.0417 13.6358 17.5517 14.6575 15.405C15.6775 13.26 16.99 11.4583 18.595 10C20.1983 8.54167 22.0108 7.44833 24.0325 6.72C26.0525 5.99 28.0417 5.625 30 5.625C31.9583 5.625 33.9483 5.99 35.97 6.72C37.99 7.44833 39.8017 8.54167 41.405 10C43.01 11.4583 44.3233 13.26 45.345 15.405C46.365 17.5517 46.875 20.0417 46.875 22.875C46.875 26.6667 45.4792 30.5308 42.6875 34.4675C39.8958 38.4058 35.6667 42.5 30 46.75ZM30 26.875C31.2083 26.875 32.24 26.4483 33.095 25.595C33.9483 24.74 34.375 23.7083 34.375 22.5C34.375 21.2917 33.9483 20.26 33.095 19.405C32.24 18.5517 31.2083 18.125 30 18.125C28.7917 18.125 27.76 18.5517 26.905 19.405C26.0517 20.26 25.625 21.2917 25.625 22.5C25.625 23.7083 26.0517 24.74 26.905 25.595C27.76 26.4483 28.7917 26.875 30 26.875ZM13.125 54.375V50.625H46.875V54.375H13.125Z" fill="white"/>
  </g>
</svg>