<svg xmlns="http://www.w3.org/2000/svg" width="60" height="60" viewBox="0 0 60 60" fill="none">
  <mask id="mask0_1665_7349" style="mask-type:alpha" maskUnits="userSpaceOnUse" x="0" y="0" width="60" height="60">
    <rect width="60" height="60" fill="#D9D9D9"/>
  </mask>
  <g mask="url(#mask0_1665_7349)">
    <path d="M39.9375 27.5V20H32.4375V16.25H39.9375V8.75H43.6875V16.25H51.1875V20H43.6875V27.5H39.9375ZM48.5625 51.125C43.7292 51.125 38.9275 49.9683 34.1575 47.655C29.3858 45.3433 25.125 42.3125 21.375 38.5625C17.625 34.8125 14.5942 30.5625 12.2825 25.8125C9.96917 21.0625 8.8125 16.25 8.8125 11.375C8.8125 10.625 9.0625 10 9.5625 9.5C10.0625 9 10.6875 8.75 11.4375 8.75H19.5625C20.2292 8.75 20.8017 8.9475 21.28 9.3425C21.76 9.73917 22.0625 10.25 22.1875 10.875L23.625 18.25C23.7083 18.875 23.6875 19.4375 23.5625 19.9375C23.4375 20.4375 23.1667 20.875 22.75 21.25L17 26.875C19 30.2083 21.3642 33.2292 24.0925 35.9375C26.8225 38.6458 29.9167 41 33.375 43L38.9375 37.375C39.3542 36.9583 39.8442 36.6667 40.4075 36.5C40.9692 36.3333 41.5417 36.2917 42.125 36.375L49.0625 37.8125C49.6875 37.9375 50.1983 38.2292 50.595 38.6875C50.99 39.1458 51.1875 39.7083 51.1875 40.375V48.5C51.1875 49.25 50.9375 49.875 50.4375 50.375C49.9375 50.875 49.3125 51.125 48.5625 51.125ZM15.25 23.3125L19.6875 19.0625C19.7708 18.9792 19.8233 18.885 19.845 18.78C19.865 18.6767 19.8542 18.5833 19.8125 18.5L18.75 12.875C18.7083 12.75 18.6458 12.6558 18.5625 12.5925C18.4792 12.5308 18.375 12.5 18.25 12.5H12.9375C12.8125 12.5 12.7183 12.5308 12.655 12.5925C12.5933 12.6558 12.5625 12.7292 12.5625 12.8125C12.6875 14.5208 12.9692 16.26 13.4075 18.03C13.8442 19.8017 14.4583 21.5625 15.25 23.3125ZM36.875 44.75C38.5417 45.5417 40.2708 46.1458 42.0625 46.5625C43.8542 46.9792 45.5417 47.2083 47.125 47.25C47.2083 47.25 47.2817 47.2183 47.345 47.155C47.4067 47.0933 47.4375 47.0208 47.4375 46.9375V41.6875C47.4375 41.5625 47.4067 41.4583 47.345 41.375C47.2817 41.2917 47.1875 41.2292 47.0625 41.1875L41.8125 40.125C41.7292 40.0833 41.6458 40.0833 41.5625 40.125L41.3125 40.25L36.875 44.75Z" fill="white"/>
  </g>
</svg>