<svg xmlns="http://www.w3.org/2000/svg" width="24" height="24" viewBox="0 0 24 24" fill="none">
  <g clipPath="url(#clip0_1726_10466)">
    <path d="M19.5188 6.70216C19.2622 5.17717 18.5071 3.78544 17.3523 2.7293C16.0691 1.55472 14.401 0.908203 12.6638 0.908203C11.3214 0.908203 10.0136 1.29315 8.89328 2.01863C7.96052 2.62073 7.18569 3.43504 6.63788 4.39247C6.40099 4.34806 6.15423 4.32338 5.90746 4.32338C3.80999 4.32338 2.10241 6.03097 2.10241 8.12844C2.10241 8.39988 2.13202 8.66144 2.18137 8.91807C0.824183 9.90512 0 11.4943 0 13.187C0 14.5541 0.508328 15.8817 1.43615 16.9329C2.38865 18.0088 3.64713 18.6454 4.98951 18.7194C5.00432 18.7194 5.01419 18.7194 5.029 18.7194H9.27329C9.64343 18.7194 9.93954 18.4233 9.93954 18.0532C9.93954 17.683 9.64343 17.3869 9.27329 17.3869H5.04874C3.03023 17.2635 1.33251 15.3437 1.33251 13.1821C1.33251 11.7854 2.08266 10.4825 3.2918 9.7768C3.5731 9.61394 3.69155 9.27341 3.58297 8.96743C3.48427 8.70092 3.43492 8.41962 3.43492 8.11857C3.43492 6.75645 4.54534 5.64602 5.90746 5.64602C6.19864 5.64602 6.48489 5.69537 6.75139 5.79408C7.07711 5.91252 7.43738 5.76446 7.58544 5.45355C8.50833 3.49426 10.5022 2.23084 12.6687 2.23084C15.5805 2.23084 17.984 4.41221 18.2603 7.30426C18.2899 7.6053 18.517 7.84713 18.8131 7.89648C21.0093 8.27156 22.6675 10.2999 22.6675 12.6146C22.6675 15.0674 20.7378 17.1994 18.359 17.382H14.7218C14.3516 17.382 14.0555 17.6781 14.0555 18.0482C14.0555 18.4184 14.3516 18.7145 14.7218 18.7145H18.3837C18.3985 18.7145 18.4133 18.7145 18.4331 18.7145C19.9383 18.6059 21.3449 17.915 22.3911 16.7601C23.4325 15.6152 24 14.1445 24 12.6146C23.9951 9.8459 22.1049 7.38322 19.5188 6.70216Z" fill="black"/>
    <path d="M15.9998 13.8186C16.2614 13.5571 16.2614 13.1376 15.9998 12.876L12.4711 9.34731C12.3478 9.22393 12.175 9.1499 12.0023 9.1499C11.8296 9.1499 11.6568 9.219 11.5335 9.34731L8.00477 12.876C7.7432 13.1376 7.7432 13.5571 8.00477 13.8186C8.13308 13.9469 8.30582 14.016 8.47362 14.016C8.64141 14.016 8.81415 13.9519 8.94246 13.8186L11.336 11.425V22.4257C11.336 22.7958 11.6322 23.0919 12.0023 23.0919C12.3724 23.0919 12.6686 22.7958 12.6686 22.4257V11.425L15.0621 13.8186C15.3188 14.0802 15.7383 14.0802 15.9998 13.8186Z" fill="black"/>
  </g>
  <defs>
    <clipPath id="clip0_1726_10466">
      <rect width="24" height="24" fill="white"/>
    </clipPath>
  </defs>
</svg>