<svg width="16" height="16" viewBox="0 0 16 16" fill="none" xmlns="http://www.w3.org/2000/svg">
<rect width="16" height="16" rx="8" fill="#02A95C"/>
<path d="M6.10803 8.02124C6.10949 8.62726 6.24806 9.15246 6.52374 9.59685C6.79939 10.0318 7.16001 10.3623 7.60561 10.5885C8.06067 10.8147 8.55807 10.9271 9.09781 10.9258C9.57126 10.9246 9.98775 10.8621 10.3473 10.7381C10.7068 10.6142 11.0284 10.4524 11.312 10.2529C11.5955 10.0533 11.846 9.83967 12.0632 9.61189L12.0694 12.1969C11.6725 12.5104 11.2375 12.7576 10.7645 12.9387C10.2915 13.1197 9.69041 13.2111 8.96129 13.2129C8.16589 13.2148 7.43174 13.0935 6.75884 12.8489C6.08595 12.6043 5.50748 12.2507 5.02343 11.7878C4.53939 11.325 4.16404 10.7767 3.89738 10.1429C3.63071 9.50914 3.49644 8.80401 3.49457 8.02755C3.49269 7.25109 3.62356 6.54532 3.88716 5.91026C4.15076 5.27519 4.52347 4.72508 5.00527 4.25993C5.48707 3.79478 6.06383 3.4383 6.73554 3.19048C7.40725 2.94266 8.1408 2.8178 8.9362 2.81588C9.66532 2.81412 10.2668 2.90262 10.7407 3.08139C11.2146 3.26016 11.6508 3.50531 12.0492 3.81682L12.0555 6.40188C11.8371 6.17515 11.5857 5.9627 11.3011 5.76453C11.0166 5.5569 10.6942 5.3967 10.3341 5.28394C9.974 5.16171 9.55721 5.10117 9.08376 5.10231C8.54402 5.10361 8.04717 5.21844 7.5932 5.4468C7.1487 5.67513 6.78968 6.00741 6.51613 6.44365C6.24258 6.87989 6.10654 7.40575 6.10803 8.02124Z" fill="white"/>
</svg>
